PathFileType	4	(X/Y/Z)	path1_02_0-549.trc
DataRate	CameraRate	NumFrames	NumMarkers	Units	OrigDataRate	OrigDataStartFrame	OrigNumFrames
30	30	7	22	m	30	0	549
Frame#	Time	Hip			RHip			RKnee			RAnkle			RBigToe			RSmallToe			RHeel			LHip			LKnee			LAnkle			LBigToe			LSmallToe			LHeel			Neck			Head			Nose			RShoulder			RElbow			RWrist			LShoulder			LElbow			LWrist		
		X1	Y1	Z1	X2	Y2	Z2	X3	Y3	Z3	X4	Y4	Z4	X5	Y5	Z5	X6	Y6	Z6	X7	Y7	Z7	X8	Y8	Z8	X9	Y9	Z9	X10	Y10	Z10	X11	Y11	Z11	X12	Y12	Z12	X13	Y13	Z13	X14	Y14	Z14	X15	Y15	Z15	X16	Y16	Z16	X17	Y17	Z17	X18	Y18	Z18	X19	Y19	Z19	X20	Y20	Z20	X21	Y21	Z21	X22	Y22	Z22
1	0.0333333333333333	2.6065062516048196	0.8365472686271654	0.22045439993617078	2.6072876263991955	0.8035266185959128	0.14320018188133793	2.620385839345923	0.45498682015203973	0.16115882509241544	2.6546440333270547	0.09866195715902382	0.15089710205314807	2.46763092292437	0.019064653124997985	0.13424552201207104	2.5076600933918316	0.02354113501356068	0.07316715450396985	2.688987734999846	0.029179203753254983	0.1424103454784881	2.596057574753425	0.8037953198889914	0.2978552352269118	2.596262680898194	0.44598677074088905	0.29743362915360916	2.663021641346658	0.10526484106183265	0.2982077375775542	2.467223473663015	0.020949736511006935	0.3026793236593636	2.525307708776665	0.025641909820733003	0.37673075214630575	2.7138014203801184	0.03882287098733999	0.28901856803487763	2.5744408937893857	1.4703017155304245	0.23730631890155626	2.550195287819263	1.702488572128913	0.2415206488721512	2.436588807304158	1.599247128010173	0.2315872437097732	2.612888030824955	1.361298704457348	0.06450337049764626	2.575586488193018	1.0646656763500566	0.004387899964843055	2.4940611287902055	0.8430815259612088	0.028284563566588046	2.6026070292837944	1.3472975091940602	0.3643744425269207	2.5727352858588732	1.0689789379160874	0.42729042049419014	2.5022944117492547	0.8426047217738326	0.4075595944724153
2	0.0666666666666666	2.606088621607289	0.8364406674042265	0.22035014862827287	2.6061881912008342	0.8038262885633972	0.14120686298143428	2.6173319483219006	0.45464803856082353	0.16120027968656178	2.6541362373040167	0.09988062375903568	0.1513254418860544	2.4681691145726807	0.022074869262962878	0.1339553872621295	2.5074667716792494	0.022041922735740703	0.07414275908114697	2.6909136320052904	0.031780518755408035	0.1458843043920178	2.597236907111651	0.803313771544251	0.2970117558571369	2.602467103771662	0.4447723518397368	0.28930860975196276	2.662228334284953	0.1045934602057593	0.29814791867004553	2.473905277837873	0.021071287164045577	0.30065894466626375	2.5205581794971246	0.02747335049525593	0.36348508487791825	2.709911484131804	0.037007549620462085	0.2849780698161675	2.5745079132211144	1.4691631095470248	0.23769385986402014	2.5465481538780086	1.707998638287562	0.23892068578983866	2.4375530197967628	1.6011902971969905	0.23322440531263333	2.6129975578941442	1.3617894393917764	0.06445370201855735	2.5751239706723803	1.066393812394887	0.003978638523040501	2.4938831789039737	0.8434921286087063	0.027832137137794817	2.6023242154225996	1.3455581012936084	0.3644673768977909	2.572741378067363	1.0677303447795312	0.42607887541527406	2.501285958939366	0.8429361783115908	0.40777046485922386
3	0.1	2.6057912466459645	0.8364453887023918	0.22032292518031563	2.6053528577203364	0.8041173809785825	0.1396556831102196	2.6148941806781734	0.45422432911615157	0.1613369423735012	2.6534527338734635	0.1007530167205947	0.1516046122483189	2.468920324014204	0.024253926980800408	0.1341278616937387	2.5071878655287527	0.020926739544896693	0.07473984495895504	2.692774417766536	0.033690506376406505	0.14878496559415483	2.598253517985251	0.8030426647336787	0.29656683701565567	2.607446011020229	0.44380797701719604	0.2829233853292058	2.6615927994199042	0.10403971330354274	0.29824741398972043	2.4792117251471852	0.021193584655790337	0.29901594968820505	2.516686267333695	0.028847173381733197	0.35273671958047526	2.706687848446495	0.035522397580967056	0.2815335153785969	2.574629146530918	1.4682252456320857	0.2380353501108422	2.5441638245261933	1.7118142231047648	0.23734803096258036	2.4383479955849254	1.602790874570249	0.23436176476346102	2.6131672292400028	1.362174714628717	0.06445535664764171	2.5748242863387283	1.0677358508656665	0.003739986175963354	2.4936734007469092	0.8438440967892784	0.02747030564132433	2.6020310188142592	1.3442466964703452	0.3645784757628254	2.5727372744959367	1.0666931770105406	0.42514681598303994	2.5004638754741273	0.8432818868996185	0.40808735697908577
4	0.1333333333333333	2.605628530747244	0.8365866189040327	0.22040180578884716	2.604918664896896	0.80421056366132	0.13878123618678717	2.6134419092209993	0.45364486499012074	0.16170638285363498	2.6528321516329596	0.10106093459612478	0.1518218545189843	2.4701016894563566	0.025367358143102998	0.1350051912733136	2.5068333797730418	0.020417778596832383	0.0748084226929938	2.6946902214517565	0.03449949669352939	0.15072304242429657	2.598967235319166	0.8029236983444765	0.29666108108062855	2.6106417574982235	0.4431351401076546	0.27894470253461495	2.6611919985330235	0.10363110203121549	0.29858308398608124	2.48217938324355	0.021315256829584184	0.2980326988802345	2.51412328322504	0.029474296165221472	0.34567558412475324	2.7044827137277974	0.034556637549672684	0.27917726312716346	2.5747494541822618	1.46760146643941	0.2383083612006045	2.543738906509004	1.7130264502721715	0.23745881626216242	2.4388698148947294	1.6039496248980403	0.23482376108456468	2.6134435147360704	1.362407579321253	0.06453823762826964	2.5747709579184663	1.0685440278384375	0.0037512267663768846	2.4934214063092743	0.8441016441949064	0.02727276375378429	2.6017582127869066	1.343499060840084	0.3646909725302435	2.572736714827855	1.0659799274082675	0.4246428278486004	2.4999221650951298	0.8436387208008678	0.4085220868560085
5	0.1666666666666666	2.605555304566125	0.8368287579182055	0.22056908066199746	2.6049038228318038	0.8039454325381449	0.13853644569979498	2.613006468501403	0.4529490574194656	0.1623681127152741	2.6528773825410217	0.10076347731404472	0.15232035228030935	2.471605535546908	0.025742206001042982	0.1363850537078447	2.5065001142286643	0.02047021061937744	0.07450385244712336	2.6968099894068454	0.0341868074669738	0.15159790756523875	2.599329533770452	0.8028042895647294	0.2971605975551196	2.6122065811288526	0.4426650610623027	0.27698937407633534	2.661000799031534	0.10329056111399802	0.29905501971728826	2.4827037321483614	0.02143491040788441	0.29769182967362035	2.5127896638476424	0.029254336492953326	0.3420598300238428	2.7033960796283565	0.03414311204885666	0.278288153714937	2.5747722642839173	1.4672794805221159	0.23845261313102056	2.545036170255875	1.7119411315001027	0.23917045730414277	2.439116350734743	1.6047411876800517	0.23478886810257532	2.6138146714135813	1.362490576859419	0.06469005323279471	2.574983289927303	1.0688917559937292	0.004013082154442063	2.493162344220659	0.8442449368640423	0.02726388030579058	2.601583353706373	1.3431629661625288	0.3647924922934321	2.572779594971599	1.0655648866338479	0.4245344020546968	2.4996324218164117	0.8439439160456059	0.40897121718426876
6	0.2	2.605500193994585	0.8370883179033408	0.2207731584364777	2.6051930760932898	0.8033460732525479	0.1386909371530381	2.613334029124442	0.4522306755856754	0.16319246548077299	2.6538623230119045	0.10002154127221644	0.15329414636123412	2.4730209437511945	0.02579584273137933	0.13776466282132765	2.50630329331472	0.020828455409310213	0.0740833140881588	2.6989207435875424	0.03310127042822247	0.15160019372778505	2.599401589954948	0.802597628993664	0.2977673024822419	2.612656711246178	0.442292335113756	0.2762790853513524	2.660942140122668	0.1028902684882355	0.2994148574216262	2.481427122989877	0.021507587429577462	0.29773936948107926	2.5124010677549524	0.02821314613486906	0.3409053031867172	2.70346746617783	0.03410909347818838	0.27894533637861796	2.574649211683766	1.4671752311175672	0.23837884125602832	2.547118385963496	1.7097316761181522	0.24163818436624554	2.439155632869192	1.6052584728361072	0.23460297102688404	2.614212468043842	1.362425600328	0.0648665169997193	2.5755083057428925	1.0689131617982746	0.0045786147838474565	2.4929626140828214	0.844258834112496	0.027409095936307117	2.6015849561598987	1.3430122211497129	0.3648890689691631	2.572909576435713	1.065348476029385	0.42467033076566063	2.4994929060730566	0.8440868449636443	0.40927980201057906
7	0.2333333333333333	2.6053580544446096	0.8372456379170503	0.22094143505049607	2.605527938093889	0.8024807311845845	0.13899340676295213	2.6140362096823293	0.4515058187335241	0.1639450471570448	2.655308623102021	0.09915503363048396	0.1544814291670253	2.474071166486482	0.02572030345220069	0.13876284513762044	2.506337515028541	0.02121593871491369	0.07369889556504752	2.70047566162528	0.031855807929710676	0.1511866797209287	2.5992639630462278	0.8021960552307693	0.2981447998560882	2.6125686965924735	0.44187829761526165	0.27611478176101323	2.6609446620832067	0.10233762060962111	0.29944197425838254	2.4792535485240634	0.021466932787095265	0.2979341166761593	2.5126660460138037	0.02654929368630424	0.3411278179631935	2.70451881549854	0.03414041056723755	0.28065393472228295	2.574384715786751	1.4672237527475014	0.23808871330213152	2.549097562595552	1.7075581495665164	0.24389160621375391	2.439085579812814	1.6056107161383182	0.23462252121103255	2.6145630965538116	1.3622038634076612	0.06503134307278498	2.57643207423677	1.0687137172354682	0.005582752637357663	2.492867460171508	0.8441430979277262	0.027658326762586054	2.6017823051385354	1.3428858313288345	0.364965315021935	2.573135816479337	1.0652455483322005	0.4248973577487727	2.4994179741906932	0.8440010865822432	0.40936184803484704
